<svg width="95" height="95" viewBox="0 0 95 95" fill="none" xmlns="http://www.w3.org/2000/svg">
<rect width="95" height="95" rx="47.5" fill="white"/>
<path d="M34.2041 53.2216C34.2041 54.4702 34.3082 55.4794 34.5163 56.2494C34.7244 57.0193 35.0885 57.7477 35.6088 58.4344L36.0146 58.9962L35.6088 59.4957H29.678L29.3035 58.4344L30.0214 58.2471C30.8122 58.0182 31.3428 57.7164 31.6133 57.3419C31.8839 56.9673 32.0191 56.3014 32.0191 55.3442V41.2353C32.0191 40.278 31.8839 39.6121 31.6133 39.2376C31.3428 38.863 30.8122 38.5612 30.0214 38.3323L29.3035 38.1451L29.678 37.0838H34.7036L46.6274 54.7823V41.2353C46.6274 40.278 46.4922 39.6121 46.2217 39.2376C45.9511 38.863 45.4205 38.5612 44.6297 38.3323L43.9118 38.1451L44.2864 37.0838H50.2171L50.6229 37.5832L50.2171 38.1451C49.6968 38.8318 49.3327 39.5601 49.1246 40.3301C48.9165 41.1 48.8124 42.1093 48.8124 43.3579V56.7488C48.8124 57.1442 48.8437 57.4667 48.9061 57.7164C48.9685 57.9662 49.083 58.2055 49.2494 58.4344L49.6552 58.9962L49.2494 59.4957H46.0968L34.2041 41.8596V53.2216ZM56.5985 55.9105C56.5985 56.6358 56.658 57.2185 56.7769 57.6585C56.8958 58.0866 57.1039 58.4968 57.4012 58.8892L57.6331 59.2103L57.4012 59.4957H53.4949L53.2809 58.8892L53.6911 58.7822C54.143 58.6633 54.4462 58.4909 54.6008 58.2649C54.7554 58.039 54.8327 57.6585 54.8327 57.1234V48.312C54.8327 48.1574 54.803 48.0504 54.7435 47.991C54.6841 47.9196 54.583 47.8839 54.4403 47.8839H53.4058L53.1917 47.224C53.703 47.0218 54.3749 46.8435 55.2073 46.6889C56.0515 46.5224 56.8601 46.4392 57.6331 46.4392C59.393 46.4392 60.701 46.8375 61.5572 47.6342C62.4133 48.419 62.8414 49.4357 62.8414 50.6843C62.8414 51.4572 62.6868 52.1588 62.3777 52.789C62.0685 53.4074 61.5928 53.9068 60.9507 54.2873C60.3086 54.656 59.5119 54.8403 58.5606 54.8403C58.1206 54.8403 57.746 54.7868 57.4369 54.6797C57.1396 54.5727 56.9909 54.4181 56.9909 54.216C56.9909 54.0971 57.0147 53.996 57.0623 53.9128C57.1099 53.8295 57.1812 53.7879 57.2763 53.7879C57.3239 53.7879 57.419 53.8117 57.5617 53.8592C57.7163 53.8949 57.9125 53.9128 58.1503 53.9128C59.0422 53.9128 59.7378 53.6274 60.2372 53.0566C60.7367 52.4858 60.9864 51.7129 60.9864 50.7378C60.9864 49.7746 60.7188 48.9839 60.1837 48.3655C59.6605 47.7472 58.9173 47.438 57.9541 47.438C57.0504 47.438 56.5985 47.7115 56.5985 48.2585V55.9105Z" fill="black"/>
<path d="M75.5773 76.9789C68.2907 85.0678 58.0669 89.9128 47.1475 90.4514C36.2282 90.99 25.5047 87.1782 17.3284 79.852C9.15211 72.5258 4.19047 62.283 3.53146 51.3698C2.87244 40.4566 6.56984 29.7636 13.8129 21.6358L16.3624 23.9081C9.71587 31.3666 6.323 41.1788 6.92774 51.1932C7.53248 61.2076 12.0855 70.6068 19.5883 77.3296C27.0912 84.0524 36.9315 87.5502 46.9515 87.056C56.9716 86.5618 66.3534 82.1159 73.0398 74.6931L75.5773 76.9789Z" fill="#9C7BD0"/>
<circle cx="17.0934" cy="20.4626" r="2.2296" fill="#9C7BD0"/>
<circle cx="76.1783" cy="73.4154" r="2.2296" fill="#9C7BD0"/>
<path d="M22.5471 17.554L20.1545 13.9078L20.7894 13.4936L23.1869 17.1473C23.3043 17.3262 23.4303 17.4641 23.5649 17.5608C23.6995 17.6576 23.8394 17.719 23.9845 17.745C24.1263 17.7661 24.2733 17.7625 24.4254 17.7342C24.5775 17.706 24.7249 17.6596 24.8674 17.595C25.0116 17.5222 25.151 17.4419 25.2854 17.3542C25.4248 17.2633 25.5528 17.1656 25.6692 17.0613C25.7906 16.9537 25.8939 16.8402 25.9791 16.7207C26.061 16.5963 26.119 16.4626 26.1532 16.3196C26.1874 16.1766 26.1886 16.0267 26.1569 15.87C26.1218 15.7083 26.0456 15.5379 25.9282 15.359L23.5307 11.7053L24.1656 11.2911L26.5582 14.9373C26.7278 15.1958 26.8398 15.4422 26.894 15.6766C26.9499 15.9028 26.9581 16.1211 26.9184 16.3315C26.8755 16.537 26.7938 16.7323 26.6734 16.9173C26.558 17.0991 26.4105 17.2698 26.2309 17.4296C26.0545 17.5943 25.8543 17.7498 25.6302 17.896C25.4161 18.0356 25.1955 18.1547 24.9685 18.2531C24.7498 18.3532 24.5313 18.4212 24.313 18.4571C24.0998 18.4897 23.8901 18.4845 23.6841 18.4414C23.4748 18.3934 23.2749 18.3002 23.0845 18.1617C22.8958 18.0151 22.7167 17.8125 22.5471 17.554Z" fill="#9C7BD0"/>
<path d="M31.1365 14.6449L32.0683 10.9593L29.2292 8.75527L30.0537 8.41181L32.3328 10.2346L32.9345 7.40975L33.7441 7.1848L32.9186 10.6352L35.9042 12.9865L35.1079 13.3296L32.6629 11.3851L31.9744 14.4195L31.1365 14.6449Z" fill="#9C7BD0"/>
<path d="M39.6006 14.1096L40.9001 5.39257L41.519 5.31096L40.2195 14.028L39.6006 14.1096Z" fill="#9C7BD0"/>
<path d="M46.2383 9.74277L46.5656 5.39398L47.3212 5.45452L46.9932 9.8122C46.9772 10.0256 46.993 10.2118 47.0406 10.3707C47.0883 10.5296 47.1617 10.6637 47.2608 10.7731C47.3603 10.8765 47.479 10.9635 47.6167 11.0342C47.7545 11.1049 47.8996 11.1583 48.0519 11.1943C48.2106 11.2249 48.3699 11.2466 48.5299 11.2595C48.6959 11.2728 48.8568 11.2737 49.0126 11.2623C49.1745 11.2515 49.3255 11.2248 49.4658 11.1823C49.6066 11.134 49.7341 11.0637 49.8484 10.9714C49.9627 10.8792 50.055 10.7613 50.1254 10.6179C50.1963 10.4685 50.2398 10.287 50.2558 10.0736L50.5838 5.71592L51.3395 5.77646L51.0121 10.1253C50.9889 10.4336 50.9274 10.697 50.8274 10.9157C50.7339 11.1289 50.6072 11.3066 50.4475 11.4489C50.2881 11.5852 50.1044 11.6898 49.8962 11.7626C49.6939 11.8358 49.4729 11.8808 49.2332 11.8973C48.993 11.9199 48.7395 11.9204 48.4728 11.8991C48.218 11.8786 47.9706 11.8379 47.7308 11.777C47.4964 11.7224 47.2818 11.6426 47.087 11.5375C46.8981 11.4329 46.7351 11.3006 46.5981 11.1405C46.4616 10.9744 46.3601 10.7784 46.2936 10.5524C46.2335 10.3209 46.2151 10.0511 46.2383 9.74277Z" fill="#9C7BD0"/>
<path d="M55.3445 12.9597L57.0163 6.94484L57.7545 7.1531L56.0826 13.168L55.3445 12.9597Z" fill="#9C7BD0"/>
<path d="M67.7482 18.9179L67.9177 18.5033C67.5964 18.4963 67.3096 18.4555 67.0572 18.3808C66.8098 18.3094 66.5789 18.1989 66.3644 18.049C65.9453 17.7562 65.7368 17.3639 65.7389 16.8722C65.7445 16.3756 65.9666 15.8127 66.4052 15.1836C66.7452 14.6958 67.085 14.3385 67.4244 14.1114C67.7688 13.8878 68.1252 13.7924 68.4938 13.8251C68.8624 13.8577 69.2465 14.0137 69.6462 14.2929C69.768 14.3781 69.8921 14.4756 70.0184 14.5856C70.1529 14.6941 70.2807 14.8124 70.4016 14.9404L71.4472 13.4406L72.0613 13.8697L68.2819 19.2908L67.7482 18.9179ZM68.2339 18.0497L70.065 15.4232C69.9411 15.2787 69.8209 15.1548 69.7044 15.0516C69.5927 14.9518 69.4833 14.8645 69.3761 14.7896C69.108 14.6023 68.8488 14.501 68.5986 14.4857C68.3517 14.4656 68.1035 14.546 67.8541 14.7271C67.608 14.9034 67.3473 15.189 67.0718 15.5841C66.8474 15.906 66.6928 16.2005 66.608 16.4676C66.5281 16.7382 66.5149 16.9755 66.5683 17.1797C66.6299 17.3823 66.7558 17.55 66.9459 17.6828C67.058 17.7612 67.1761 17.8256 67.3004 17.8761C67.4246 17.9266 67.5615 17.9642 67.711 17.9889C67.8653 18.017 68.0397 18.0372 68.2339 18.0497Z" fill="#9C7BD0"/>
<path d="M72.8139 23.5481C72.5926 23.3073 72.4284 23.0626 72.3212 22.8141C72.2139 22.5656 72.1701 22.3114 72.1897 22.0515C72.2133 21.7959 72.3025 21.5327 72.4573 21.2618C72.6161 20.9952 72.8489 20.7214 73.1557 20.4401C73.5107 20.1147 73.8471 19.8789 74.165 19.7328C74.4913 19.587 74.7973 19.5202 75.0831 19.5325C75.3689 19.5447 75.6331 19.6171 75.8759 19.7495C76.1226 19.8862 76.3526 20.0706 76.5658 20.3027C76.9761 20.7492 77.1613 21.1925 77.1213 21.6323C77.0858 22.0682 76.8007 22.5312 76.2659 23.0213C76.2396 23.0454 76.2004 23.0774 76.1481 23.1172C76.0999 23.1614 76.0519 23.2014 76.004 23.2372C75.9152 23.1492 75.7918 23.0325 75.6338 22.8869C75.4799 22.7457 75.3018 22.5783 75.0996 22.3846C74.8974 22.1908 74.6793 21.9754 74.4452 21.7383C74.2112 21.5011 73.9673 21.2488 73.7135 20.9814C73.6876 20.9971 73.6636 21.015 73.6417 21.0351C73.6198 21.0552 73.5957 21.0773 73.5694 21.1014C73.2845 21.3625 73.0906 21.6128 72.9877 21.8523C72.8932 22.0922 72.8769 22.3249 72.9388 22.5504C73.0047 22.7804 73.1402 23.007 73.3454 23.2303C73.4741 23.3704 73.6114 23.5066 73.7573 23.6391C73.9076 23.7675 74.0562 23.8853 74.2032 23.9926C74.3542 24.1042 74.4951 24.2049 74.626 24.2946L74.2782 24.7465C74.1301 24.6644 73.9724 24.563 73.8049 24.4423C73.6415 24.3259 73.4788 24.1928 73.3168 24.0428C73.1505 23.8969 72.9828 23.732 72.8139 23.5481ZM74.1009 20.6384C74.2939 20.8486 74.4812 21.048 74.6625 21.2366C74.8523 21.4256 75.026 21.5971 75.1836 21.751C75.3452 21.9094 75.4827 22.0414 75.5961 22.1472C75.7094 22.253 75.7924 22.3302 75.8451 22.3787C76.0865 22.1494 76.2556 21.9379 76.3523 21.7444C76.449 21.5509 76.476 21.3649 76.4331 21.1864C76.3946 21.004 76.2909 20.8208 76.122 20.6369C76.0174 20.523 75.8973 20.4275 75.7617 20.3501C75.6304 20.2688 75.4789 20.2182 75.3071 20.1982C75.1438 20.1785 74.9596 20.2022 74.7546 20.2691C74.558 20.3363 74.3401 20.4595 74.1009 20.6384Z" fill="#9C7BD0"/>
<path d="M76.7462 27.9534L77.2931 27.7571C77.3086 27.8652 77.3326 27.982 77.3653 28.1076C77.4061 28.2353 77.4509 28.364 77.4999 28.4938C77.5488 28.6236 77.6044 28.753 77.6666 28.8819C77.7289 29.0108 77.7932 29.1316 77.8597 29.2443C78.05 29.5669 78.2458 29.7761 78.4472 29.8717C78.6567 29.9695 78.8641 29.9583 79.0693 29.8381C79.177 29.775 79.2558 29.6979 79.3056 29.6067C79.3605 29.5126 79.3889 29.4029 79.391 29.2776C79.3982 29.1494 79.3826 29.0001 79.3442 28.8296C79.314 28.6613 79.2701 28.4699 79.2127 28.2555C79.1531 28.0492 79.1119 27.8564 79.0889 27.6769C79.071 27.4945 79.0765 27.3224 79.1054 27.1608C79.1425 27.0013 79.206 26.8573 79.2959 26.7289C79.3909 26.5974 79.5205 26.4836 79.6847 26.3875C80.0541 26.1711 80.4184 26.1335 80.7777 26.2744C81.137 26.4154 81.4661 26.7394 81.7651 27.2464C81.8527 27.395 81.9296 27.5429 81.9958 27.6901C82.065 27.8425 82.1204 27.9892 82.1621 28.1302C82.212 28.2732 82.2451 28.4054 82.2614 28.5267L81.7145 28.723C81.6849 28.6026 81.6497 28.4785 81.6089 28.3508C81.5711 28.2282 81.5222 28.0984 81.462 27.9614C81.4049 27.8295 81.3341 27.6918 81.2495 27.5484C81.0713 27.2463 80.883 27.0499 80.6847 26.9594C80.4863 26.8688 80.2948 26.8777 80.1101 26.9858C79.9972 27.0519 79.9159 27.1306 79.8661 27.2217C79.8245 27.315 79.8027 27.4242 79.8006 27.5495C79.8067 27.6768 79.8254 27.814 79.8569 27.9609C79.8914 28.113 79.9319 28.2753 79.9784 28.4479C80.0419 28.6725 80.0871 28.8837 80.114 29.0816C80.1461 29.2764 80.1477 29.4546 80.1188 29.6162C80.0929 29.783 80.0313 29.9361 79.9342 30.0757C79.8371 30.2153 79.6936 30.3407 79.5037 30.4518C79.3396 30.548 79.1742 30.607 79.0075 30.6287C78.8491 30.6526 78.6924 30.6445 78.5375 30.6043C78.3908 30.5662 78.2474 30.4986 78.1073 30.4015C77.9724 30.3014 77.8411 30.1784 77.7137 30.0326C77.5863 29.8867 77.4667 29.719 77.3549 29.5296C77.2522 29.3554 77.1598 29.1753 77.0776 28.9892C76.9933 28.8112 76.9223 28.6323 76.8646 28.4525C76.8099 28.2778 76.7704 28.1114 76.7462 27.9534Z" fill="#9C7BD0"/>
<path d="M85.7166 33.3705C85.6577 33.2148 85.6435 33.0932 85.674 33.0056C85.7045 32.9181 85.7894 32.8484 85.9286 32.7964C86.0735 32.7424 86.1853 32.7355 86.2641 32.7759C86.345 32.8219 86.416 32.9255 86.477 33.0868C86.5358 33.2425 86.549 33.3613 86.5164 33.4433C86.4859 33.5308 86.3983 33.6016 86.2534 33.6557C86.1142 33.7076 86.0041 33.7106 85.9232 33.6647C85.8443 33.6243 85.7755 33.5262 85.7166 33.3705ZM80.2032 35.0282L84.6818 33.3569L84.9435 34.0493L80.4649 35.7206L80.2032 35.0282Z" fill="#9C7BD0"/>
<path d="M80.2027 41.9397C80.078 41.2614 80.0892 40.7309 80.2364 40.3482C80.3837 39.9655 80.668 39.7365 81.0894 39.6611C81.2533 39.6318 81.4103 39.6309 81.5604 39.6584C81.7058 39.6928 81.8443 39.7556 81.9759 39.8469C82.1086 39.9439 82.2321 40.0728 82.3463 40.2336L82.2754 40.7355C82.1911 40.6056 82.0993 40.5013 82.0002 40.4224C81.9021 40.3493 81.799 40.2983 81.6909 40.2693C81.5839 40.2461 81.4689 40.2456 81.346 40.2675C81.1587 40.301 81.0104 40.3819 80.901 40.5102C80.7916 40.6385 80.7246 40.8166 80.7 41.0444C80.6765 41.2781 80.6949 41.5587 80.7551 41.8862C80.8185 42.2312 80.9098 42.5138 81.0289 42.7341C81.1422 42.9555 81.2774 43.1155 81.4346 43.2142C81.5929 43.3188 81.7686 43.3538 81.9617 43.3193C82.1081 43.2931 82.2221 43.2395 82.3039 43.1584C82.3799 43.0784 82.4289 42.967 82.451 42.8241C82.4742 42.6871 82.4664 42.5133 82.4277 42.3028L82.2066 41.1012C82.1539 40.8146 82.1439 40.5627 82.1765 40.3455C82.216 40.1331 82.2963 39.9617 82.4174 39.8313C82.5454 39.7058 82.7119 39.6247 82.9167 39.588C83.1333 39.5493 83.3308 39.5714 83.5092 39.6542C83.6936 39.736 83.8671 39.8741 84.0298 40.0685L83.9492 40.5177C83.8382 40.3745 83.722 40.2685 83.6005 40.1996C83.4801 40.1366 83.3496 40.1176 83.2092 40.1427C83.0512 40.171 82.9361 40.252 82.8639 40.3857C82.7977 40.5183 82.7887 40.7162 82.8371 40.9793L83.0985 42.4003C83.1824 42.8564 83.1434 43.2197 82.9816 43.4902C82.8198 43.7608 82.5457 43.9306 82.1594 43.9997C81.8434 44.0562 81.554 44.0113 81.2913 43.865C81.0297 43.7245 80.8058 43.4928 80.6194 43.1698C80.433 42.8467 80.2941 42.4367 80.2027 41.9397ZM83.8837 41.3448C83.775 40.7542 83.8215 40.2839 84.0231 39.9338C84.2247 39.5836 84.5772 39.3636 85.0805 39.2736C85.5897 39.1825 85.9981 39.2665 86.3057 39.5256C86.6191 39.7836 86.8302 40.2079 86.9388 40.7985C87.0474 41.3891 87.0004 41.8565 86.7978 42.2008C86.602 42.5499 86.2496 42.7699 85.7404 42.861C85.237 42.951 84.8286 42.867 84.5152 42.609C84.2028 42.3568 83.9923 41.9354 83.8837 41.3448ZM84.3929 41.2538C84.4596 41.6163 84.588 41.8712 84.7783 42.0183C84.9745 42.1645 85.2511 42.2056 85.6081 42.1418C85.9709 42.0769 86.2153 41.9426 86.341 41.7389C86.4726 41.5342 86.5051 41.2505 86.4384 40.888C86.3717 40.5254 86.2398 40.2682 86.0425 40.1162C85.8523 39.969 85.5757 39.9279 85.2128 39.9928C84.8558 40.0566 84.6115 40.1909 84.4799 40.3957C84.3552 40.6052 84.3262 40.8912 84.3929 41.2538ZM86.4323 42.2843L86.7709 41.9066C86.9721 41.9492 87.1341 42.041 87.2568 42.1821C87.3795 42.3233 87.4607 42.502 87.5005 42.7184C87.5123 42.7827 87.5202 42.8417 87.524 42.8954C87.5289 42.9549 87.5309 43.0149 87.5299 43.0755L86.9272 43.1017C86.9314 43.0587 86.9321 43.0133 86.9293 42.9655C86.9266 42.9176 86.9204 42.8674 86.9107 42.8148C86.886 42.6803 86.8352 42.5686 86.7584 42.4796C86.6816 42.3907 86.5729 42.3256 86.4323 42.2843Z" fill="#9C7BD0"/>
<path d="M82.8724 47.8768L87.6484 48.0775L87.6233 48.7549L87.2045 48.7373C87.3041 48.9378 87.3893 49.1289 87.4599 49.3103C87.5303 49.4978 87.5799 49.6843 87.6087 49.87C87.6432 50.0619 87.6566 50.2618 87.6489 50.4698C87.6381 50.7609 87.5786 51.0024 87.4703 51.1942C87.3621 51.386 87.208 51.5283 87.0083 51.6211C86.8144 51.7141 86.5749 51.7546 86.2898 51.7426L82.7345 51.5932L82.7619 50.8535L86.1123 50.9943C86.3974 51.0063 86.617 50.9411 86.771 50.7988C86.9308 50.6627 87.0161 50.4461 87.0272 50.1491C87.0331 49.9886 87.021 49.8334 86.9909 49.6834C86.9608 49.5333 86.9186 49.3858 86.8645 49.2407C86.8164 49.0958 86.7537 48.9415 86.6764 48.7776L82.8449 48.6165L82.8724 47.8768Z" fill="#9C7BD0"/>
<path d="M81.6107 57.6369C81.6937 57.3206 81.8107 57.0503 81.9617 56.8259C82.1128 56.6016 82.3029 56.4277 82.532 56.3042C82.7595 56.1864 83.029 56.1198 83.3404 56.1043C83.6503 56.0946 84.0063 56.1434 84.4085 56.2506C84.8738 56.3746 85.2538 56.5313 85.5483 56.7205C85.8471 56.9171 86.0685 57.1392 86.2126 57.3868C86.3566 57.6344 86.4385 57.8962 86.4583 58.1722C86.4766 58.454 86.4458 58.7472 86.3659 59.0521C86.212 59.6387 85.9394 60.0336 85.548 60.237C85.1623 60.4418 84.619 60.4508 83.9181 60.264C83.8837 60.2548 83.8356 60.2389 83.7739 60.2163C83.7107 60.1995 83.6511 60.1805 83.5952 60.1595C83.6211 60.0372 83.6526 59.8702 83.6897 59.6586C83.7253 59.4527 83.7699 59.2123 83.8236 58.9374C83.8772 58.6625 83.9405 58.3625 84.0135 58.0374C84.0865 57.7123 84.1669 57.3707 84.2547 57.0126C84.2275 56.9992 84.1995 56.9886 84.1708 56.981C84.142 56.9733 84.1104 56.9649 84.076 56.9557C83.7025 56.8562 83.3874 56.8275 83.1304 56.8698C82.8777 56.9193 82.6732 57.031 82.517 57.2047C82.3593 57.3842 82.242 57.6206 82.165 57.9139C82.1168 58.0979 82.0764 58.2871 82.0438 58.4815C82.017 58.6774 81.9982 58.8662 81.9874 59.0479C81.9751 59.2354 81.9666 59.4085 81.9619 59.5672L81.3941 59.5174C81.3831 59.3483 81.3832 59.1607 81.3942 58.9544C81.4038 58.7539 81.4279 58.545 81.4664 58.3276C81.4993 58.1087 81.5474 57.8784 81.6107 57.6369ZM84.7522 57.1544C84.6798 57.4305 84.6133 57.6958 84.5527 57.9504C84.4963 58.2122 84.4459 58.4511 84.4016 58.6669C84.3558 58.8885 84.319 59.0756 84.2913 59.2282C84.2635 59.3808 84.2435 59.4924 84.2311 59.5629C84.5544 59.6429 84.8234 59.6716 85.0384 59.6489C85.2533 59.6262 85.4242 59.5487 85.5511 59.4164C85.6838 59.2856 85.7818 59.0994 85.8452 58.8579C85.8844 58.7084 85.8999 58.5556 85.8916 58.3995C85.8891 58.2451 85.8499 58.09 85.7739 57.9344C85.7022 57.786 85.5828 57.6435 85.4159 57.5067C85.2532 57.3772 85.0319 57.2597 84.7522 57.1544Z" fill="#9C7BD0"/>
<path d="M83.6692 66.2798L83.1425 66.0169C83.2069 66.2484 83.2472 66.4546 83.2636 66.6356C83.2854 66.8192 83.2818 66.9936 83.253 67.1586C83.2242 67.3236 83.1715 67.4834 83.0948 67.6378C83.0393 67.7497 82.9772 67.8549 82.9084 67.9534C82.8396 68.052 82.7694 68.1399 82.6979 68.2172L82.1469 67.8026C82.2211 67.72 82.2899 67.6281 82.3534 67.5269C82.4196 67.4336 82.4752 67.3418 82.5201 67.2512C82.6126 67.0648 82.6678 66.8532 82.6858 66.6163C82.7065 66.3874 82.6713 66.1172 82.5802 65.8059L79.3645 64.2005L79.6936 63.5375L83.9705 65.6727L83.6692 66.2798Z" fill="#9C7BD0"/>
</svg>
