<svg width="289" height="248" viewBox="0 0 289 248" fill="none" xmlns="http://www.w3.org/2000/svg">
<rect width="289" height="248" rx="124" fill="white"/>
<path d="M119.696 137.263C119.696 139.503 119.883 141.313 120.256 142.695C120.629 144.076 121.283 145.383 122.216 146.615L122.944 147.623L122.216 148.519H111.576L110.904 146.615L112.192 146.279C113.611 145.868 114.563 145.327 115.048 144.655C115.533 143.983 115.776 142.788 115.776 141.071V115.759C115.776 114.041 115.533 112.847 115.048 112.175C114.563 111.503 113.611 110.961 112.192 110.551L110.904 110.215L111.576 108.311H120.592L141.984 140.063V115.759C141.984 114.041 141.741 112.847 141.256 112.175C140.771 111.503 139.819 110.961 138.4 110.551L137.112 110.215L137.784 108.311H148.424L149.152 109.207L148.424 110.215C147.491 111.447 146.837 112.753 146.464 114.135C146.091 115.516 145.904 117.327 145.904 119.567V143.591C145.904 144.3 145.96 144.879 146.072 145.327C146.184 145.775 146.389 146.204 146.688 146.615L147.416 147.623L146.688 148.519H141.032L119.696 116.879V137.263ZM159.873 142.087C159.873 143.388 159.979 144.433 160.193 145.223C160.406 145.991 160.779 146.727 161.313 147.431L161.729 148.007L161.313 148.519H154.305L153.921 147.431L154.657 147.239C155.467 147.025 156.011 146.716 156.289 146.311C156.566 145.905 156.705 145.223 156.705 144.263V128.455C156.705 128.177 156.651 127.985 156.545 127.879C156.438 127.751 156.257 127.687 156.001 127.687H154.145L153.761 126.503C154.678 126.14 155.883 125.82 157.377 125.543C158.891 125.244 160.342 125.095 161.729 125.095C164.886 125.095 167.233 125.809 168.769 127.239C170.305 128.647 171.073 130.471 171.073 132.711C171.073 134.097 170.795 135.356 170.241 136.487C169.686 137.596 168.833 138.492 167.681 139.175C166.529 139.836 165.099 140.167 163.393 140.167C162.603 140.167 161.931 140.071 161.377 139.879C160.843 139.687 160.577 139.409 160.577 139.047C160.577 138.833 160.619 138.652 160.705 138.503C160.79 138.353 160.918 138.279 161.089 138.279C161.174 138.279 161.345 138.321 161.601 138.407C161.878 138.471 162.23 138.503 162.657 138.503C164.257 138.503 165.505 137.991 166.401 136.967C167.297 135.943 167.745 134.556 167.745 132.807C167.745 131.079 167.265 129.66 166.305 128.551C165.366 127.441 164.033 126.887 162.305 126.887C160.683 126.887 159.873 127.377 159.873 128.359V142.087Z" fill="black"/>
<path d="M193.922 179.911C180.849 194.423 162.507 203.115 142.917 204.082C123.328 205.048 104.089 198.21 89.4205 185.066C74.7519 171.922 65.8505 153.546 64.6682 133.967C63.4859 114.389 70.1192 95.205 83.1135 80.6232L87.6874 84.6999C75.7633 98.0808 69.6763 115.684 70.7613 133.651C71.8462 151.617 80.0145 168.48 93.475 180.541C106.935 192.602 124.589 198.877 142.566 197.99C160.542 197.104 177.374 189.127 189.369 175.811L193.922 179.911Z" fill="#9C7BD0"/>
<circle cx="89" cy="78.5186" r="4" fill="#9C7BD0"/>
<circle cx="195" cy="173.519" r="4" fill="#9C7BD0"/>
<path d="M98.1541 72.342L93.8617 65.8006L95.0008 65.0575L99.302 71.6123C99.5126 71.9334 99.7387 72.1807 99.9802 72.3543C100.222 72.5279 100.473 72.638 100.733 72.6847C100.987 72.7225 101.251 72.7161 101.524 72.6654C101.797 72.6147 102.061 72.5314 102.317 72.4156C102.576 72.285 102.826 72.141 103.067 71.9836C103.317 71.8204 103.546 71.6452 103.755 71.458C103.973 71.265 104.158 71.0614 104.311 70.8471C104.458 70.6238 104.562 70.384 104.624 70.1274C104.685 69.8709 104.687 69.6021 104.63 69.3208C104.567 69.0307 104.431 68.7251 104.22 68.404L99.9188 61.8492L101.058 61.1062L105.35 67.6476C105.655 68.1113 105.855 68.5534 105.953 68.9739C106.053 69.3797 106.068 69.7713 105.996 70.1489C105.919 70.5175 105.773 70.8678 105.557 71.1997C105.35 71.5258 105.085 71.8322 104.763 72.1188C104.447 72.4144 104.087 72.6933 103.685 72.9555C103.301 73.2061 102.906 73.4197 102.498 73.5962C102.106 73.7758 101.714 73.8978 101.322 73.9622C100.94 74.0207 100.564 74.0114 100.194 73.9341C99.8185 73.848 99.4599 73.6807 99.1184 73.4323C98.7798 73.1692 98.4584 72.8057 98.1541 72.342Z" fill="#9C7BD0"/>
<path d="M113.811 67.0002L115.483 60.3881L110.389 56.434L111.868 55.8178L115.957 59.088L117.037 54.0201L118.489 53.6165L117.008 59.8067L122.364 64.025L120.936 64.6405L116.549 61.152L115.314 66.596L113.811 67.0002Z" fill="#9C7BD0"/>
<path d="M129.223 65.9853L131.554 50.3465L132.664 50.2001L130.333 65.8389L129.223 65.9853Z" fill="#9C7BD0"/>
<path d="M141.373 58.1434L141.96 50.3415L143.316 50.4501L142.727 58.268C142.698 58.6509 142.727 58.9849 142.812 59.27C142.898 59.555 143.029 59.7956 143.207 59.9918C143.386 60.1773 143.599 60.3335 143.846 60.4603C144.093 60.5871 144.353 60.6829 144.626 60.7476C144.911 60.8025 145.197 60.8414 145.484 60.8644C145.782 60.8883 146.07 60.89 146.35 60.8696C146.64 60.8501 146.911 60.8022 147.163 60.7261C147.416 60.6393 147.644 60.5132 147.849 60.3477C148.054 60.1822 148.22 59.9708 148.346 59.7134C148.474 59.4453 148.552 59.1199 148.58 58.7369L149.169 50.9191L150.525 51.0277L149.937 58.8296C149.896 59.3827 149.785 59.8554 149.606 60.2477C149.438 60.6301 149.211 60.949 148.924 61.2043C148.638 61.4489 148.309 61.6365 147.935 61.7671C147.572 61.8985 147.176 61.9791 146.746 62.0088C146.315 62.0492 145.86 62.0502 145.382 62.0119C144.924 61.9753 144.481 61.9023 144.05 61.7929C143.63 61.695 143.245 61.5518 142.895 61.3633C142.556 61.1756 142.264 60.9382 142.018 60.651C141.773 60.3531 141.591 60.0014 141.472 59.596C141.364 59.1807 141.331 58.6965 141.373 58.1434Z" fill="#9C7BD0"/>
<path d="M157.929 63.9536L160.928 53.1627L162.253 53.5363L159.253 64.3273L157.929 63.9536Z" fill="#9C7BD0"/>
<path d="M180.53 74.8071L180.834 74.0632C180.258 74.0508 179.743 73.9775 179.291 73.8435C178.847 73.7155 178.432 73.5171 178.048 73.2483C177.296 72.7229 176.922 72.0191 176.926 71.137C176.935 70.2461 177.334 69.2363 178.121 68.1075C178.731 67.2325 179.34 66.5913 179.949 66.1841C180.567 65.7829 181.207 65.6116 181.868 65.6703C182.529 65.7289 183.218 66.0087 183.935 66.5097C184.154 66.6624 184.377 66.8374 184.603 67.0347C184.844 67.2294 185.074 67.4415 185.291 67.6712L187.166 64.9805L188.268 65.7503L181.488 75.4761L180.53 74.8071ZM181.402 73.2494L184.687 68.5375C184.464 68.2781 184.249 68.0558 184.04 67.8708C183.839 67.6918 183.643 67.5351 183.451 67.4007C182.97 67.0647 182.505 66.883 182.056 66.8555C181.613 66.8194 181.168 66.9637 180.72 67.2886C180.279 67.6048 179.811 68.1172 179.317 68.826C178.914 69.4035 178.637 69.9319 178.485 70.4112C178.341 70.8966 178.318 71.3224 178.413 71.6886C178.524 72.0521 178.75 72.3531 179.091 72.5913C179.292 72.7318 179.504 72.8474 179.727 72.938C179.95 73.0287 180.195 73.0962 180.463 73.1404C180.74 73.1908 181.053 73.2271 181.402 73.2494Z" fill="#9C7BD0"/>
<path d="M189.809 83.2795C189.412 82.8475 189.117 82.4086 188.925 81.9627C188.733 81.5169 188.654 81.0608 188.689 80.5945C188.732 80.1361 188.892 79.6638 189.169 79.1778C189.454 78.6996 189.872 78.2082 190.422 77.7037C191.059 77.1199 191.663 76.6969 192.233 76.4347C192.818 76.1731 193.367 76.0533 193.88 76.0753C194.393 76.0973 194.867 76.2271 195.302 76.4646C195.745 76.7099 196.158 77.0408 196.54 77.4571C197.276 78.2582 197.609 79.0534 197.537 79.8426C197.473 80.6245 196.962 81.4551 196.002 82.3344C195.955 82.3777 195.885 82.435 195.791 82.5064C195.704 82.5857 195.618 82.6575 195.532 82.7217C195.373 82.5639 195.152 82.3545 194.868 82.0934C194.592 81.8401 194.273 81.5396 193.91 81.1921C193.547 80.8445 193.156 80.458 192.736 80.0326C192.316 79.6071 191.878 79.1545 191.423 78.6747C191.377 78.7029 191.334 78.735 191.294 78.771C191.255 78.8071 191.212 78.8467 191.165 78.89C190.653 79.3584 190.306 79.8075 190.121 80.2372C189.951 80.6675 189.922 81.085 190.033 81.4897C190.151 81.9022 190.395 82.3087 190.763 82.7093C190.994 82.9607 191.24 83.2052 191.502 83.4427C191.771 83.6731 192.038 83.8845 192.302 84.0769C192.572 84.2772 192.825 84.4578 193.06 84.6188L192.436 85.4295C192.171 85.2823 191.887 85.1003 191.587 84.8837C191.294 84.675 191.002 84.4361 190.711 84.1671C190.413 83.9053 190.112 83.6094 189.809 83.2795ZM192.118 78.0594C192.464 78.4365 192.8 78.7942 193.126 79.1326C193.466 79.4716 193.778 79.7793 194.061 80.0555C194.35 80.3396 194.597 80.5765 194.8 80.7663C195.004 80.9561 195.153 81.0945 195.247 81.1816C195.68 80.7701 195.984 80.3908 196.157 80.0436C196.331 79.6965 196.379 79.3628 196.302 79.0426C196.233 78.7152 196.047 78.3866 195.744 78.0567C195.556 77.8524 195.341 77.681 195.098 77.5423C194.862 77.3963 194.59 77.3054 194.282 77.2696C193.989 77.2344 193.659 77.2768 193.291 77.3968C192.938 77.5175 192.547 77.7383 192.118 78.0594Z" fill="#9C7BD0"/>
<path d="M197.008 91.378L197.989 91.0259C198.017 91.2198 198.06 91.4294 198.118 91.6547C198.192 91.8838 198.272 92.1148 198.36 92.3476C198.448 92.5805 198.548 92.8126 198.659 93.0439C198.771 93.2752 198.886 93.4919 199.005 93.694C199.347 94.2728 199.698 94.648 200.059 94.8197C200.435 94.9951 200.807 94.975 201.176 94.7593C201.369 94.6461 201.51 94.5078 201.599 94.3442C201.698 94.1753 201.749 93.9785 201.753 93.7538C201.766 93.5237 201.738 93.2558 201.669 92.9501C201.615 92.6481 201.536 92.3048 201.433 91.9201C201.326 91.55 201.252 91.204 201.211 90.8821C201.179 90.5547 201.189 90.2461 201.24 89.9561C201.307 89.6699 201.421 89.4116 201.582 89.1812C201.753 88.9454 201.985 88.7412 202.28 88.5687C202.942 88.1806 203.596 88.113 204.241 88.366C204.885 88.6189 205.476 89.2002 206.012 90.1098C206.169 90.3762 206.307 90.6415 206.426 90.9058C206.55 91.1792 206.649 91.4423 206.724 91.6952C206.814 91.9518 206.873 92.189 206.902 92.4067L205.921 92.7588C205.868 92.5427 205.805 92.3201 205.732 92.091C205.664 91.8711 205.576 91.6383 205.468 91.3924C205.366 91.1557 205.239 90.9088 205.087 90.6515C204.767 90.1094 204.429 89.7572 204.074 89.5948C203.718 89.4323 203.374 89.4481 203.043 89.6422C202.84 89.7608 202.694 89.9019 202.605 90.0654C202.53 90.2328 202.491 90.4288 202.488 90.6534C202.498 90.8819 202.532 91.128 202.589 91.3916C202.65 91.6644 202.723 91.9556 202.807 92.2652C202.92 92.6682 203.002 93.0472 203.05 93.4021C203.107 93.7516 203.11 94.0713 203.058 94.3613C203.012 94.6604 202.902 94.9352 202.727 95.1856C202.553 95.436 202.296 95.6609 201.955 95.8604C201.66 96.0329 201.364 96.1387 201.065 96.1778C200.78 96.2207 200.499 96.206 200.222 96.1339C199.958 96.0655 199.701 95.9443 199.45 95.7701C199.208 95.5905 198.972 95.3699 198.744 95.1082C198.515 94.8465 198.3 94.5457 198.1 94.2058C197.916 93.8934 197.75 93.5703 197.602 93.2363C197.451 92.9169 197.324 92.596 197.22 92.2734C197.122 91.9601 197.051 91.6616 197.008 91.378Z" fill="#9C7BD0"/>
<path d="M213.187 101.275C213.081 100.996 213.056 100.778 213.111 100.621C213.165 100.464 213.318 100.339 213.567 100.245C213.827 100.148 214.028 100.136 214.169 100.209C214.315 100.291 214.442 100.477 214.551 100.766C214.657 101.046 214.68 101.259 214.622 101.406C214.567 101.563 214.41 101.69 214.15 101.787C213.9 101.88 213.703 101.885 213.558 101.803C213.416 101.731 213.293 101.555 213.187 101.275ZM203.296 104.249L211.331 101.251L211.8 102.493L203.765 105.491L203.296 104.249Z" fill="#9C7BD0"/>
<path d="M203.349 116.848C203.125 115.631 203.145 114.679 203.41 113.992C203.674 113.306 204.184 112.895 204.94 112.76C205.234 112.707 205.515 112.706 205.785 112.755C206.046 112.817 206.294 112.929 206.53 113.093C206.768 113.267 206.99 113.499 207.195 113.787L207.068 114.687C206.916 114.454 206.752 114.267 206.574 114.126C206.398 113.994 206.213 113.903 206.019 113.851C205.827 113.809 205.621 113.808 205.4 113.848C205.064 113.908 204.798 114.053 204.602 114.283C204.405 114.513 204.285 114.833 204.241 115.242C204.199 115.661 204.232 116.164 204.34 116.752C204.454 117.371 204.618 117.878 204.831 118.273C205.034 118.67 205.277 118.957 205.559 119.134C205.843 119.322 206.158 119.385 206.505 119.323C206.767 119.276 206.972 119.18 207.119 119.034C207.255 118.891 207.343 118.691 207.383 118.434C207.424 118.189 207.41 117.877 207.341 117.499L206.944 115.343C206.85 114.829 206.832 114.377 206.89 113.988C206.961 113.607 207.105 113.299 207.322 113.065C207.552 112.84 207.851 112.694 208.218 112.629C208.607 112.559 208.961 112.599 209.281 112.747C209.612 112.894 209.923 113.142 210.215 113.491L210.07 114.297C209.871 114.04 209.663 113.849 209.445 113.726C209.229 113.613 208.995 113.579 208.743 113.624C208.459 113.675 208.253 113.82 208.123 114.06C208.004 114.298 207.988 114.653 208.075 115.125L208.544 117.674C208.695 118.492 208.625 119.144 208.334 119.629C208.044 120.115 207.552 120.419 206.859 120.543C206.292 120.645 205.773 120.564 205.302 120.302C204.833 120.05 204.431 119.634 204.097 119.055C203.762 118.475 203.513 117.739 203.349 116.848ZM209.953 115.781C209.758 114.721 209.841 113.877 210.203 113.249C210.565 112.621 211.197 112.226 212.1 112.065C213.014 111.901 213.746 112.052 214.298 112.517C214.86 112.98 215.239 113.741 215.434 114.8C215.629 115.86 215.544 116.699 215.181 117.316C214.83 117.942 214.197 118.337 213.284 118.501C212.381 118.662 211.648 118.511 211.086 118.048C210.525 117.596 210.148 116.84 209.953 115.781ZM210.866 115.617C210.986 116.268 211.217 116.725 211.558 116.989C211.91 117.251 212.406 117.325 213.046 117.21C213.698 117.094 214.136 116.853 214.361 116.487C214.598 116.12 214.656 115.611 214.536 114.961C214.417 114.31 214.18 113.849 213.826 113.576C213.485 113.312 212.988 113.238 212.337 113.355C211.697 113.469 211.259 113.71 211.022 114.078C210.799 114.454 210.747 114.967 210.866 115.617ZM214.525 117.466L215.133 116.788C215.494 116.865 215.784 117.029 216.004 117.283C216.224 117.536 216.37 117.857 216.442 118.245C216.463 118.36 216.477 118.466 216.484 118.562C216.493 118.669 216.496 118.777 216.494 118.885L215.413 118.932C215.421 118.855 215.422 118.774 215.417 118.688C215.412 118.602 215.401 118.512 215.383 118.418C215.339 118.176 215.248 117.976 215.11 117.816C214.972 117.657 214.777 117.54 214.525 117.466Z" fill="#9C7BD0"/>
<path d="M208.156 127.749L216.724 128.109L216.679 129.324L215.928 129.293C216.106 129.653 216.259 129.995 216.386 130.321C216.512 130.657 216.601 130.992 216.653 131.325C216.715 131.669 216.739 132.028 216.725 132.401C216.706 132.923 216.599 133.357 216.404 133.701C216.21 134.045 215.934 134.3 215.576 134.467C215.228 134.633 214.798 134.706 214.287 134.685L207.908 134.417L207.957 133.09L213.968 133.342C214.48 133.364 214.874 133.247 215.15 132.991C215.437 132.747 215.59 132.359 215.609 131.826C215.62 131.538 215.598 131.259 215.544 130.99C215.49 130.721 215.415 130.456 215.318 130.196C215.231 129.936 215.119 129.659 214.98 129.365L208.106 129.076L208.156 127.749Z" fill="#9C7BD0"/>
<path d="M205.854 145.506C206.003 144.939 206.213 144.454 206.484 144.051C206.755 143.649 207.096 143.337 207.507 143.115C207.915 142.904 208.399 142.785 208.957 142.757C209.513 142.739 210.152 142.827 210.873 143.019C211.708 143.242 212.39 143.523 212.918 143.862C213.454 144.215 213.852 144.613 214.11 145.058C214.369 145.502 214.516 145.972 214.551 146.467C214.584 146.972 214.529 147.498 214.385 148.045C214.109 149.098 213.62 149.806 212.918 150.171C212.226 150.539 211.251 150.555 209.994 150.22C209.932 150.203 209.846 150.175 209.735 150.134C209.622 150.104 209.515 150.07 209.414 150.032C209.461 149.813 209.517 149.513 209.584 149.133C209.648 148.764 209.728 148.333 209.824 147.84C209.92 147.346 210.034 146.808 210.165 146.225C210.296 145.642 210.44 145.029 210.598 144.386C210.549 144.362 210.499 144.343 210.447 144.33C210.395 144.316 210.339 144.301 210.277 144.284C209.607 144.106 209.042 144.054 208.581 144.13C208.127 144.219 207.76 144.419 207.48 144.731C207.197 145.053 206.987 145.477 206.849 146.003C206.762 146.333 206.69 146.673 206.631 147.022C206.583 147.373 206.549 147.712 206.53 148.038C206.508 148.374 206.493 148.685 206.484 148.969L205.466 148.88C205.446 148.577 205.446 148.24 205.466 147.87C205.483 147.51 205.526 147.135 205.595 146.745C205.654 146.353 205.741 145.94 205.854 145.506ZM211.49 144.641C211.36 145.136 211.241 145.612 211.132 146.069C211.031 146.539 210.941 146.967 210.861 147.354C210.779 147.752 210.713 148.088 210.663 148.361C210.613 148.635 210.577 148.835 210.555 148.962C211.135 149.105 211.618 149.157 212.004 149.116C212.389 149.075 212.696 148.936 212.923 148.699C213.161 148.464 213.337 148.13 213.451 147.697C213.521 147.429 213.549 147.155 213.534 146.875C213.53 146.597 213.459 146.319 213.323 146.04C213.194 145.774 212.98 145.518 212.681 145.273C212.389 145.04 211.992 144.83 211.49 144.641Z" fill="#9C7BD0"/>
<path d="M209.464 161.229L208.519 160.757C208.634 161.173 208.707 161.543 208.736 161.867C208.775 162.197 208.769 162.509 208.717 162.806C208.665 163.102 208.571 163.388 208.433 163.665C208.334 163.866 208.222 164.055 208.099 164.232C207.975 164.408 207.849 164.566 207.721 164.705L206.733 163.961C206.866 163.813 206.989 163.648 207.103 163.466C207.222 163.299 207.321 163.134 207.402 162.972C207.568 162.637 207.667 162.258 207.699 161.833C207.737 161.422 207.673 160.937 207.51 160.379L201.741 157.499L202.331 156.309L210.004 160.14L209.464 161.229Z" fill="#9C7BD0"/>
</svg>
