<svg width="64" height="64" viewBox="0 0 64 64" fill="none" xmlns="http://www.w3.org/2000/svg">
<path d="M59.75 0H4.25C1.90279 0 0 1.89908 0 4.24172V59.6335C0 61.9762 1.90279 63.8752 4.25 63.8752H59.75C62.0972 63.8752 64 61.9762 64 59.6335V4.24172C64 1.89908 62.0972 0 59.75 0Z" fill="#FFD02F"/>
<path d="M43.6109 8.51669H36.7789L42.8439 17.9002L30.0214 8.51669H23.1894L29.2542 20.8114L16.432 8.51669H9.6001L15.5655 24.3868L9.6001 55.3585H16.432L29.2542 22.1497L23.1894 55.3585H30.0214L42.8439 19.2386L36.7789 55.3585H43.6109L56.5326 15.683L43.6109 8.51669Z" fill="#050038"/>
</svg>
