<svg width="64" height="64" viewBox="0 0 64 64" fill="none" xmlns="http://www.w3.org/2000/svg">
<g clip-path="url(#clip0_23_640)">
<path fill-rule="evenodd" clip-rule="evenodd" d="M23.4653 0C19.9274 0.00260958 17.0642 2.86793 17.0668 6.39869C17.0642 9.92946 19.9301 12.7948 23.4679 12.7974H29.8689V6.4013C29.8715 2.87054 27.0057 0.00521916 23.4653 0C23.4679 0 23.4679 0 23.4653 0V0ZM23.4653 17.0667H6.40105C2.86322 17.0693 -0.00260766 19.9346 7.14594e-06 23.4654C-0.00522246 26.9961 2.8606 29.8614 6.39844 29.8667H23.4653C27.0031 29.8641 29.8689 26.9987 29.8663 23.468C29.8689 19.9346 27.0031 17.0693 23.4653 17.0667V17.0667Z" fill="#36C5F0"/>
<path fill-rule="evenodd" clip-rule="evenodd" d="M64.0002 23.4654C64.0028 19.9346 61.1369 17.0693 57.5991 17.0667C54.0613 17.0693 51.1954 19.9346 51.198 23.4654V29.8667H57.5991C61.1369 29.8641 64.0028 26.9987 64.0002 23.4654ZM46.9333 23.4654V6.39869C46.9359 2.87054 44.0727 0.00521916 40.5348 0C36.997 0.00260958 34.1312 2.86793 34.1338 6.39869V23.4654C34.1286 26.9961 36.9944 29.8614 40.5322 29.8667C44.0701 29.8641 46.9359 26.9987 46.9333 23.4654Z" fill="#2EB67D"/>
<path fill-rule="evenodd" clip-rule="evenodd" d="M40.5319 64C44.0697 63.9974 46.9356 61.1321 46.9329 57.6013C46.9356 54.0706 44.0697 51.2052 40.5319 51.2026H34.1309V57.6013C34.1282 61.1295 36.9941 63.9948 40.5319 64ZM40.5319 46.9307H57.5987C61.1366 46.9281 64.0024 44.0628 63.9998 40.532C64.005 37.0013 61.1392 34.136 57.6014 34.1307H40.5345C36.9967 34.1333 34.1309 36.9987 34.1335 40.5294C34.1309 44.0628 36.9941 46.9281 40.5319 46.9307V46.9307Z" fill="#ECB22E"/>
<path fill-rule="evenodd" clip-rule="evenodd" d="M1.78791e-06 40.532C-0.00261302 44.0628 2.86322 46.9281 6.40105 46.9307C9.93889 46.9281 12.8047 44.0628 12.8021 40.532V34.1333H6.40105C2.86322 34.1359 -0.00261302 37.0012 1.78791e-06 40.532ZM17.0669 40.532V57.5987C17.0616 61.1295 19.9275 63.9948 23.4653 64C27.0031 63.9974 29.869 61.1321 29.8663 57.6013V40.5372C29.8716 37.0065 27.0057 34.1411 23.4679 34.1359C19.9275 34.1359 17.0642 37.0012 17.0669 40.532C17.0669 40.5346 17.0669 40.532 17.0669 40.532Z" fill="#E01E5A"/>
</g>
<defs>
<clipPath id="clip0_23_640">
<rect width="64" height="64" fill="white"/>
</clipPath>
</defs>
</svg>
